<svg id="Logo" xmlns="http://www.w3.org/2000/svg" xmlns:xlink="http://www.w3.org/1999/xlink" viewBox="0 0 354.28 128.44"><defs><linearGradient id="linear-gradient" x1="14.75" y1="76.61" x2="129.6" y2="50.09" gradientUnits="userSpaceOnUse"><stop offset="0" stop-color="#264d95"/><stop offset="1" stop-color="#27aa9d"/></linearGradient><linearGradient id="linear-gradient-2" x1="22.48" y1="64.85" x2="119.39" y2="64.85" xlink:href="#linear-gradient"/><linearGradient id="linear-gradient-3" x1="13.24" y1="63.35" x2="131.11" y2="63.35" xlink:href="#linear-gradient"/></defs><title>Octavo_logo</title><path d="M115.44,10.14l18.95,82.07L28.91,116.56,10,34.49,115.44,10.14m1.68-5.26a2.36,2.36,0,0,0-.58.07L6.7,30.31a2.57,2.57,0,0,0-1.93,3.08l20,86.44a2.57,2.57,0,0,0,2.5,2,3,3,0,0,0,.58-.07L137.65,96.39a2.58,2.58,0,0,0,1.93-3.08l-20-86.44a2.57,2.57,0,0,0-2.5-2Z" opacity="0.8" fill="url(#linear-gradient)"/><path d="M164.67,40.3A2.88,2.88,0,0,1,162,43h-7V82.75a4.26,4.26,0,0,0,4,4,3.09,3.09,0,0,1,2.79,2.79A3,3,0,0,1,159,92.22a9.28,9.28,0,0,1-9.58-9.47V43h-6.8c-2.67,0-2.67-1.34-2.67-2.68s0-2.67,2.67-2.67h6.8V17.35a2.88,2.88,0,0,1,2.67-2.67,3,3,0,0,1,2.9,2.67V37.63h7A2.87,2.87,0,0,1,164.67,40.3Z" fill="#27aa9d"/><path d="M225.1,40.3V89.55a2.68,2.68,0,0,1-5.35,0V81.41a25.46,25.46,0,0,1-20.5,10.81c-14.37,0-25.85-12.36-25.85-27.29s11.48-27.3,25.85-27.3a25.36,25.36,0,0,1,20.5,10.7v-8a2.68,2.68,0,0,1,5.35,0Zm-5.35,24.63c0-12.26-9.25-22.06-20.5-22.06s-20.5,9.8-20.5,22.06,9.36,21.94,20.5,21.94S219.75,77.18,219.75,64.93Z" fill="#27aa9d"/><path d="M256,91.78a3.69,3.69,0,0,1-.89-1.23l-20.5-48.8A2.72,2.72,0,0,1,236,38.3a2.62,2.62,0,0,1,3.45,1.44l18.16,43,18.16-43a2.6,2.6,0,1,1,4.8,2L260.14,90.1a3.75,3.75,0,0,1-.67,1.34,2.38,2.38,0,0,1-1.79.78,2.5,2.5,0,0,1-.89-.11c-.11,0-.11,0-.22-.11S256.24,91.89,256,91.78Z" fill="#27aa9d"/><path d="M315.11,37.6a26.38,26.38,0,0,1,10.65,2.17A27.49,27.49,0,0,1,340.35,54.4a27.49,27.49,0,0,1,0,21.41,27.66,27.66,0,0,1-14.59,14.6,27.39,27.39,0,0,1-21.37,0,27.63,27.63,0,0,1-14.6-14.6,27.49,27.49,0,0,1,0-21.41,27.46,27.46,0,0,1,14.6-14.63A26.54,26.54,0,0,1,315.11,37.6Zm0,49.33a20.57,20.57,0,0,0,8.42-1.74,22.85,22.85,0,0,0,6.92-4.68,21.74,21.74,0,0,0,4.68-23.81,22,22,0,0,0-11.6-11.59,21.73,21.73,0,0,0-16.85,0A21.9,21.9,0,0,0,295.13,56.7a21.13,21.13,0,0,0-1.7,8.43,21.61,21.61,0,0,0,6.37,15.38,23.09,23.09,0,0,0,6.92,4.68A20.66,20.66,0,0,0,315.15,86.93Z" fill="#27aa9d"/><path d="M115,82.17A23.26,23.26,0,0,1,100.86,87c-12.82,0-23-9.9-23-22.28,0-12.14,10.13-22.15,23-22.15A22.61,22.61,0,0,1,115,47.52a2.75,2.75,0,0,0,3.71-.45,2.53,2.53,0,0,0-.34-3.71A28.67,28.67,0,0,0,75.21,53a27.91,27.91,0,0,0-5.43-7.73A28.22,28.22,0,0,0,61,39.28a27.65,27.65,0,0,0-21.57,0A27.76,27.76,0,0,0,24.67,54.06a27.77,27.77,0,0,0,0,21.62A27.9,27.9,0,0,0,39.41,90.41a27.65,27.65,0,0,0,21.57,0A27.81,27.81,0,0,0,75.24,76.72a28.19,28.19,0,0,0,25.62,15.69,28.5,28.5,0,0,0,17.32-5.85,2.67,2.67,0,0,0,.56-3.94A2.77,2.77,0,0,0,115,82.17ZM70.48,73.43a21.52,21.52,0,0,1-4.72,7,23.24,23.24,0,0,1-7,4.72,21.54,21.54,0,0,1-17,0,23.16,23.16,0,0,1-7-4.72,21.84,21.84,0,0,1-6.44-15.53,21.32,21.32,0,0,1,1.72-8.51A22.25,22.25,0,0,1,41.77,44.67a22,22,0,0,1,17,0,22.28,22.28,0,0,1,11.7,11.71,21.15,21.15,0,0,1,1.72,8.51A21.43,21.43,0,0,1,70.48,73.43Z" fill="url(#linear-gradient-2)"/><path d="M126.3,21.23v84.24H18.05V21.23H126.3m2.24-4.8H15.81A2.57,2.57,0,0,0,13.24,19v88.72a2.57,2.57,0,0,0,2.57,2.56H128.54a2.57,2.57,0,0,0,2.57-2.56V19a2.57,2.57,0,0,0-2.57-2.56Z" fill="url(#linear-gradient-3)"/></svg>