<svg xmlns="http://www.w3.org/2000/svg" xmlns:xlink="http://www.w3.org/1999/xlink" width="102.023" height="36.432" viewBox="0 0 102.023 36.432">
  <defs>
    <clipPath id="clip-path">
      <rect width="102.023" height="36.432" fill="none"/>
    </clipPath>
    <linearGradient id="linear-gradient" y1="0.5" x2="0.999" y2="0.5" gradientUnits="objectBoundingBox">
      <stop offset="0" stop-color="#20579d"/>
      <stop offset="1" stop-color="#27af9f"/>
    </linearGradient>
    <linearGradient id="linear-gradient-2" x1="0.001" y1="0.5" x2="1" y2="0.5" xlink:href="#linear-gradient"/>
    <linearGradient id="linear-gradient-3" x1="0.072" y1="0.614" x2="0.928" y2="0.387" xlink:href="#linear-gradient"/>
  </defs>
  <g id="Octavo_logo_102" data-name="Octavo logo 102" clip-path="url(#clip-path)">
    <path id="Path_4468" data-name="Path 4468" d="M183.532,23.49a.857.857,0,0,1-.8.8h-2.11V36.22a1.273,1.273,0,0,0,1.2,1.2.927.927,0,0,1,.844.844.9.9,0,0,1-.844.8,2.785,2.785,0,0,1-2.884-2.837V24.287H176.9c-.8,0-.8-.4-.8-.8s0-.8.8-.8h2.04V16.6a.857.857,0,0,1,.8-.8.888.888,0,0,1,.867.8v6.072h2.11A.923.923,0,0,1,183.532,23.49Z" transform="translate(-134.821 -12.096)" fill="#27af9f"/>
    <path id="Path_4469" data-name="Path 4469" d="M234.5,46v14.77a.806.806,0,0,1-.8.8.822.822,0,0,1-.8-.8V58.329a7.606,7.606,0,0,1-6.142,3.235,8.193,8.193,0,0,1,0-16.364,7.584,7.584,0,0,1,6.142,3.212V46a.8.8,0,0,1,1.594,0Zm-1.618,7.385a6.157,6.157,0,1,0-6.142,6.588A6.382,6.382,0,0,0,232.879,53.382Z" transform="translate(-167.664 -34.603)" fill="#27af9f"/>
    <path id="Path_4470" data-name="Path 4470" d="M303.505,61.81a.892.892,0,0,1-.258-.375L297.1,46.805a.8.8,0,0,1,.4-1.032.785.785,0,0,1,1.031.422l5.439,12.894L309.413,46.2a.767.767,0,0,1,1.032-.422.783.783,0,0,1,.4,1.032l-6.119,14.512a.829.829,0,0,1-.211.4.749.749,0,0,1-.539.234.961.961,0,0,1-.258-.023c-.023,0-.023,0-.07-.023A1.439,1.439,0,0,1,303.505,61.81Z" transform="translate(-227.412 -34.99)" fill="#27af9f"/>
    <path id="Path_4471" data-name="Path 4471" d="M373.329,45.1a7.688,7.688,0,0,1,3.188.656,8.2,8.2,0,0,1,4.361,4.384,8.279,8.279,0,0,1,.656,3.212,7.72,7.72,0,0,1-.656,3.212,8.091,8.091,0,0,1-1.758,2.6,8.229,8.229,0,0,1-2.6,1.758,8.128,8.128,0,0,1-6.4,0,8.094,8.094,0,0,1-2.6-1.758,8.227,8.227,0,0,1-2.415-5.814,7.875,7.875,0,0,1,.656-3.212,8.464,8.464,0,0,1,1.758-2.626,8.229,8.229,0,0,1,2.6-1.758A7.719,7.719,0,0,1,373.329,45.1Zm.023,14.793a6.194,6.194,0,0,0,2.532-.516,7.109,7.109,0,0,0,2.087-1.407,7,7,0,0,0,1.407-2.063,6.6,6.6,0,0,0,.516-2.532,6.2,6.2,0,0,0-.516-2.532,6.322,6.322,0,0,0-1.407-2.063,6.814,6.814,0,0,0-2.087-1.407,6.6,6.6,0,0,0-2.532-.516,6.194,6.194,0,0,0-2.532.516,6.682,6.682,0,0,0-2.086,1.407,7,7,0,0,0-1.407,2.063,6.6,6.6,0,0,0-.516,2.532,6.2,6.2,0,0,0,.516,2.532,5.982,5.982,0,0,0,1.407,2.063,6.814,6.814,0,0,0,2.086,1.407A6.04,6.04,0,0,0,373.352,59.893Z" transform="translate(-279.512 -34.527)" fill="#27af9f"/>
    <path id="Path_4472" data-name="Path 4472" d="M46.013,44.263H12.347A1.546,1.546,0,0,1,10.8,42.716V16.247A1.546,1.546,0,0,1,12.347,14.7H46.013a1.546,1.546,0,0,1,1.547,1.547V42.716A1.577,1.577,0,0,1,46.013,44.263ZM45.99,16.247H12.347V42.716H45.99Z" transform="translate(-8.274 -11.254)" opacity="0.9" fill="url(#linear-gradient)"/>
    <path id="Path_4473" data-name="Path 4473" d="M53.441,57.757a6.864,6.864,0,0,1-4.22,1.454,6.635,6.635,0,1,1,4.22-11.792.825.825,0,0,0,1.1-.141.753.753,0,0,0-.094-1.1,8.574,8.574,0,0,0-12.894,2.86,8.329,8.329,0,0,0-4.243-4.079A7.8,7.8,0,0,0,34.1,44.3a7.907,7.907,0,0,0-3.235.656,8.436,8.436,0,0,0-4.407,4.407,8.243,8.243,0,0,0,0,6.447,8.436,8.436,0,0,0,4.407,4.407,8.243,8.243,0,0,0,6.447,0,8.528,8.528,0,0,0,2.626-1.782,8.165,8.165,0,0,0,1.641-2.321A8.422,8.422,0,0,0,49.221,60.8,8.655,8.655,0,0,0,54.4,59.07a.794.794,0,0,0,.164-1.172A.834.834,0,0,0,53.441,57.757Zm-13.293-2.6a6.815,6.815,0,0,1-1.407,2.087,7.11,7.11,0,0,1-2.087,1.407,6.194,6.194,0,0,1-2.532.516,6.116,6.116,0,0,1-2.532-.516A7.11,7.11,0,0,1,29.5,57.241,6.423,6.423,0,0,1,28.1,55.155a6.226,6.226,0,0,1-.516-2.555,6.04,6.04,0,0,1,.516-2.532A7.11,7.11,0,0,1,29.5,47.981a6.306,6.306,0,0,1,2.087-1.407,6.194,6.194,0,0,1,2.532-.516,6.116,6.116,0,0,1,2.532.516,7.11,7.11,0,0,1,2.087,1.407,6.306,6.306,0,0,1,1.407,2.087,6.194,6.194,0,0,1,.516,2.532A6.3,6.3,0,0,1,40.148,55.155Z" transform="translate(-19.758 -33.914)" fill="url(#linear-gradient-2)"/>
    <path id="Path_4474" data-name="Path 4474" d="M7.522,36.432h0a1.531,1.531,0,0,1-1.5-1.2L.067,9.448A1.515,1.515,0,0,1,1.216,7.619L33.991.047A1.81,1.81,0,0,1,34.342,0a1.531,1.531,0,0,1,1.5,1.2L41.8,27.008a1.515,1.515,0,0,1-1.149,1.829L7.85,36.409A1.441,1.441,0,0,1,7.522,36.432ZM34.342,1.547,1.567,9.12,7.522,34.908,40.3,27.336Z" transform="translate(-0.026)" opacity="0.7" fill="url(#linear-gradient-3)"/>
  </g>
</svg>
