<svg id="Logo" xmlns="http://www.w3.org/2000/svg" xmlns:xlink="http://www.w3.org/1999/xlink" viewBox="0 0 337.82 116.93"><defs><style>.cls-1{opacity:0.8;fill:url(#linear-gradient);}.cls-2{fill:#27aa9d;}.cls-3{fill:url(#linear-gradient-2);}.cls-4{fill:url(#linear-gradient-3);}</style><linearGradient id="linear-gradient" x1="67.48" y1="128.11" x2="182.33" y2="101.6" gradientUnits="userSpaceOnUse"><stop offset="0" stop-color="#264d95"/><stop offset="1" stop-color="#27aa9d"/></linearGradient><linearGradient id="linear-gradient-2" x1="75.21" y1="116.35" x2="172.12" y2="116.35" xlink:href="#linear-gradient"/><linearGradient id="linear-gradient-3" x1="65.97" y1="114.86" x2="183.84" y2="114.86" xlink:href="#linear-gradient"/></defs><title>Octavo main logo</title><path class="cls-1" d="M168.18,61.64l18.94,82.08L81.64,168.07,62.69,86,168.18,61.64m1.68-5.25a2.25,2.25,0,0,0-.58.07L59.43,81.82a2.55,2.55,0,0,0-1.92,3.07l19.95,86.44a2.57,2.57,0,0,0,2.5,2,2.86,2.86,0,0,0,.58-.06L190.39,147.9a2.57,2.57,0,0,0,1.92-3.08l-20-86.44a2.56,2.56,0,0,0-2.49-2Z" transform="translate(-57.44 -56.39)"/><path class="cls-2" d="M217.4,91.81a2.88,2.88,0,0,1-2.68,2.68h-7v39.77c0,2.67,2.68,4,4,4a3.09,3.09,0,0,1,2.78,2.79,3,3,0,0,1-2.78,2.67,9.28,9.28,0,0,1-9.58-9.47V94.49h-6.8c-2.68,0-2.68-1.34-2.68-2.68s0-2.67,2.68-2.67h6.8V68.86a2.86,2.86,0,0,1,2.67-2.67,3,3,0,0,1,2.89,2.67V89.14h7A2.87,2.87,0,0,1,217.4,91.81Z" transform="translate(-57.44 -56.39)"/><path class="cls-2" d="M277.83,91.81v49.25a2.67,2.67,0,1,1-5.34,0v-8.14A25.5,25.5,0,0,1,252,143.73c-14.38,0-25.85-12.37-25.85-27.3S237.61,89.14,252,89.14a25.39,25.39,0,0,1,20.5,10.69v-8a2.67,2.67,0,1,1,5.34,0Zm-5.34,24.62c0-12.25-9.25-22.06-20.5-22.06s-20.5,9.81-20.5,22.06,9.36,21.95,20.5,21.95S272.49,128.69,272.49,116.43Z" transform="translate(-57.44 -56.39)"/><path class="cls-2" d="M308.75,143.28a3.3,3.3,0,0,1-.89-1.22l-20.5-48.8a2.71,2.71,0,0,1,1.33-3.45,2.63,2.63,0,0,1,3.46,1.44l18.16,43,18.16-43a2.6,2.6,0,1,1,4.79,2l-20.39,48.35a3.67,3.67,0,0,1-.67,1.34,2.34,2.34,0,0,1-1.78.78,2.45,2.45,0,0,1-.89-.11c-.11,0-.11,0-.23-.11S309,143.4,308.75,143.28Z" transform="translate(-57.44 -56.39)"/><path class="cls-2" d="M367.85,89.11a26.53,26.53,0,0,1,10.64,2.16,27.61,27.61,0,0,1,14.6,14.64,27.49,27.49,0,0,1,0,21.41,27.72,27.72,0,0,1-14.6,14.6,27.39,27.39,0,0,1-21.37,0,27.72,27.72,0,0,1-14.6-14.6,27.49,27.49,0,0,1,0-21.41,27.61,27.61,0,0,1,14.6-14.64A26.72,26.72,0,0,1,367.85,89.11Zm0,49.32a20.66,20.66,0,0,0,8.43-1.74,22.94,22.94,0,0,0,6.92-4.67,21.51,21.51,0,0,0,4.67-6.92,21.26,21.26,0,0,0,1.7-8.47,20.91,20.91,0,0,0-1.7-8.42,22,22,0,0,0-11.59-11.6,21.73,21.73,0,0,0-16.85,0,22,22,0,0,0-11.6,11.6,21.08,21.08,0,0,0-1.7,8.42,21.43,21.43,0,0,0,1.7,8.47,21.69,21.69,0,0,0,4.68,6.92,22.82,22.82,0,0,0,6.92,4.67A20.64,20.64,0,0,0,367.88,138.43Z" transform="translate(-57.44 -56.39)"/><path class="cls-3" d="M167.76,133.68a23.21,23.21,0,0,1-14.17,4.83c-12.82,0-23-9.9-23-22.27,0-12.14,10.13-22.16,23-22.16a22.58,22.58,0,0,1,14.17,5,2.76,2.76,0,0,0,3.71-.45,2.53,2.53,0,0,0-.33-3.71A28.68,28.68,0,0,0,128,104.45a27.83,27.83,0,0,0-5.44-7.72,28.18,28.18,0,0,0-8.79-5.94,27.68,27.68,0,0,0-21.58,0A27.76,27.76,0,0,0,77.4,105.57a27.75,27.75,0,0,0,0,21.61,27.87,27.87,0,0,0,14.74,14.74,27.68,27.68,0,0,0,21.58,0A27.84,27.84,0,0,0,128,128.23a28.7,28.7,0,0,0,42.94,9.83,2.66,2.66,0,0,0,.56-3.94A2.76,2.76,0,0,0,167.76,133.68Zm-44.54-8.74a21.68,21.68,0,0,1-4.72,7,23.26,23.26,0,0,1-7,4.73,21.54,21.54,0,0,1-17,0,23.26,23.26,0,0,1-7-4.73,21.73,21.73,0,0,1-6.43-15.53,21.3,21.3,0,0,1,1.71-8.5A22.16,22.16,0,0,1,94.5,96.18a22,22,0,0,1,17,0,22.16,22.16,0,0,1,11.71,11.71,21.31,21.31,0,0,1,1.72,8.5A21.62,21.62,0,0,1,123.22,124.94Z" transform="translate(-57.44 -56.39)"/><path class="cls-4" d="M179,72.74V157H70.78V72.74H179m2.24-4.81H68.54A2.57,2.57,0,0,0,66,70.5v88.71a2.57,2.57,0,0,0,2.57,2.57H181.28a2.57,2.57,0,0,0,2.56-2.57V70.5a2.57,2.57,0,0,0-2.56-2.57Z" transform="translate(-57.44 -56.39)"/></svg>